G04 EAGLE Gerber RS-274X export*
G75*
%MOMM*%
%FSLAX34Y34*%
%LPD*%
%INSoldermask Bottom*%
%IPPOS*%
%AMOC8*
5,1,8,0,0,1.08239X$1,22.5*%
G01*
%ADD10P,1.951982X8X202.500000*%
%ADD11C,1.803400*%
%ADD12C,3.251200*%
%ADD13C,1.524000*%
%ADD14C,1.411200*%
%ADD15P,1.649562X8X292.500000*%
%ADD16P,1.649562X8X112.500000*%
%ADD17C,1.320800*%
%ADD18P,1.649562X8X202.500000*%
%ADD19P,1.951982X8X22.500000*%
%ADD20P,1.759533X8X202.500000*%


D10*
X234950Y838200D03*
D11*
X260350Y838200D03*
D12*
X70000Y618490D02*
X70000Y588010D01*
X17000Y588010D02*
X17000Y618490D01*
X128000Y618490D02*
X128000Y588010D01*
X70000Y842010D02*
X70000Y872490D01*
X17000Y872490D02*
X17000Y842010D01*
X128000Y842010D02*
X128000Y872490D01*
X70000Y745490D02*
X70000Y715010D01*
X17000Y715010D02*
X17000Y745490D01*
X128000Y745490D02*
X128000Y715010D01*
D13*
X234950Y705104D02*
X234950Y691896D01*
X260350Y691896D02*
X260350Y705104D01*
X387350Y705104D02*
X387350Y691896D01*
X387350Y768096D02*
X387350Y781304D01*
X285750Y705104D02*
X285750Y691896D01*
X311150Y691896D02*
X311150Y705104D01*
X361950Y705104D02*
X361950Y691896D01*
X336550Y691896D02*
X336550Y705104D01*
X361950Y768096D02*
X361950Y781304D01*
X336550Y781304D02*
X336550Y768096D01*
X311150Y768096D02*
X311150Y781304D01*
X285750Y781304D02*
X285750Y768096D01*
X260350Y768096D02*
X260350Y781304D01*
X234950Y781304D02*
X234950Y768096D01*
D14*
X488950Y704540D02*
X488950Y692460D01*
X514350Y692460D02*
X514350Y704540D01*
X539750Y704540D02*
X539750Y692460D01*
X565150Y692460D02*
X565150Y704540D01*
X565150Y768660D02*
X565150Y780740D01*
X539750Y780740D02*
X539750Y768660D01*
X514350Y768660D02*
X514350Y780740D01*
X488950Y780740D02*
X488950Y768660D01*
D15*
X336550Y876300D03*
X336550Y800100D03*
D16*
X184150Y806450D03*
X184150Y857250D03*
D15*
X184150Y768350D03*
X184150Y717550D03*
D16*
X260350Y596900D03*
X260350Y673100D03*
X285750Y596900D03*
X285750Y673100D03*
D17*
X298450Y546100D03*
X273050Y546100D03*
X247650Y546100D03*
D16*
X311150Y596900D03*
X311150Y673100D03*
X234950Y596900D03*
X234950Y673100D03*
X209550Y596900D03*
X209550Y673100D03*
X336550Y596900D03*
X336550Y673100D03*
D15*
X361950Y673100D03*
X361950Y596900D03*
X514350Y673100D03*
X514350Y596900D03*
X539750Y673100D03*
X539750Y596900D03*
D16*
X488950Y596900D03*
X488950Y673100D03*
X311150Y800100D03*
X311150Y876300D03*
D15*
X387350Y673100D03*
X387350Y596900D03*
D16*
X539750Y800100D03*
X539750Y876300D03*
D15*
X514350Y876300D03*
X514350Y800100D03*
D18*
X431800Y546100D03*
X355600Y546100D03*
D17*
X438150Y609600D03*
X438150Y635000D03*
X438150Y660400D03*
D15*
X425450Y774700D03*
X425450Y698500D03*
X450850Y774700D03*
X450850Y698500D03*
X463550Y876300D03*
X463550Y800100D03*
D16*
X438150Y800100D03*
X438150Y876300D03*
X412750Y800100D03*
X412750Y876300D03*
X387350Y800100D03*
X387350Y876300D03*
X565150Y622300D03*
X565150Y673100D03*
D15*
X488950Y850900D03*
X488950Y800100D03*
D13*
X234950Y197104D02*
X234950Y183896D01*
X260350Y183896D02*
X260350Y197104D01*
X387350Y197104D02*
X387350Y183896D01*
X387350Y260096D02*
X387350Y273304D01*
X285750Y197104D02*
X285750Y183896D01*
X311150Y183896D02*
X311150Y197104D01*
X361950Y197104D02*
X361950Y183896D01*
X336550Y183896D02*
X336550Y197104D01*
X361950Y260096D02*
X361950Y273304D01*
X336550Y273304D02*
X336550Y260096D01*
X311150Y260096D02*
X311150Y273304D01*
X285750Y273304D02*
X285750Y260096D01*
X260350Y260096D02*
X260350Y273304D01*
X234950Y273304D02*
X234950Y260096D01*
D12*
X70000Y59690D02*
X70000Y29210D01*
X17000Y29210D02*
X17000Y59690D01*
X128000Y59690D02*
X128000Y29210D01*
X70000Y283210D02*
X70000Y313690D01*
X17000Y313690D02*
X17000Y283210D01*
X128000Y283210D02*
X128000Y313690D01*
X70000Y186690D02*
X70000Y156210D01*
X17000Y156210D02*
X17000Y186690D01*
X128000Y186690D02*
X128000Y156210D01*
D15*
X336550Y368300D03*
X336550Y292100D03*
D10*
X234950Y330200D03*
D11*
X260350Y330200D03*
D14*
X488950Y196540D02*
X488950Y184460D01*
X514350Y184460D02*
X514350Y196540D01*
X539750Y196540D02*
X539750Y184460D01*
X565150Y184460D02*
X565150Y196540D01*
X565150Y260660D02*
X565150Y272740D01*
X539750Y272740D02*
X539750Y260660D01*
X514350Y260660D02*
X514350Y272740D01*
X488950Y272740D02*
X488950Y260660D01*
D15*
X184150Y387350D03*
X184150Y336550D03*
X184150Y260350D03*
X184150Y209550D03*
D16*
X260350Y88900D03*
X260350Y165100D03*
X285750Y88900D03*
X285750Y165100D03*
D17*
X311150Y50800D03*
X285750Y50800D03*
X260350Y50800D03*
D16*
X311150Y88900D03*
X311150Y165100D03*
X234950Y88900D03*
X234950Y165100D03*
X209550Y88900D03*
X209550Y165100D03*
X336550Y88900D03*
X336550Y165100D03*
D15*
X361950Y165100D03*
X361950Y88900D03*
D16*
X514350Y88900D03*
X514350Y165100D03*
X539750Y88900D03*
X539750Y165100D03*
X488950Y88900D03*
X488950Y165100D03*
X311150Y292100D03*
X311150Y368300D03*
D15*
X387350Y165100D03*
X387350Y88900D03*
D16*
X508000Y292100D03*
X508000Y368300D03*
X533400Y292100D03*
X533400Y368300D03*
D18*
X431800Y44450D03*
X355600Y44450D03*
D17*
X438150Y152400D03*
X438150Y127000D03*
X438150Y101600D03*
D15*
X425450Y266700D03*
X425450Y190500D03*
X450850Y266700D03*
X450850Y190500D03*
X438150Y368300D03*
X438150Y292100D03*
D16*
X412750Y292100D03*
X412750Y368300D03*
X361950Y292100D03*
X361950Y368300D03*
X387350Y292100D03*
X387350Y368300D03*
X565150Y114300D03*
X565150Y165100D03*
D15*
X482600Y342900D03*
X482600Y292100D03*
D19*
X234950Y444500D03*
D11*
X209550Y444500D03*
D19*
X539750Y444500D03*
D11*
X514350Y444500D03*
D20*
X425450Y457200D03*
X425450Y431800D03*
X400050Y457200D03*
X400050Y431800D03*
X374650Y457200D03*
X374650Y431800D03*
X349250Y457200D03*
X349250Y431800D03*
X323850Y457200D03*
X323850Y431800D03*
M02*
