M48
;GenerationSoftware,Autodesk,EAGLE,9.6.2*%
;CreationDate,2022-05-18T20:16:31Z*%
FMAT,2
ICI,OFF
METRIC,TZ,000.000
T5C0.610
T4C0.700
T3C0.813
T2C0.914
T1C2.032
%
G90
M71
T1
X7000Y60325
X1700Y60325
X12800Y60325
X7000Y85725
X1700Y85725
X12800Y85725
X7000Y73025
X1700Y73025
X12800Y73025
X12800Y17145
X1700Y17145
X7000Y17145
X12800Y29845
X1700Y29845
X7000Y29845
X12800Y4445
X1700Y4445
X7000Y4445
T2
X32385Y43180
X32385Y45720
X34925Y43180
X34925Y45720
X37465Y43180
X37465Y45720
X40005Y43180
X40005Y45720
X42545Y43180
X42545Y45720
T3
X23495Y83820
X33655Y77470
X26035Y83820
X23495Y69850
X26035Y69850
X33655Y87630
X33655Y80010
X18415Y80645
X18415Y85725
X18415Y76835
X18415Y71755
X26035Y59690
X26035Y67310
X28575Y59690
X28575Y67310
X38735Y69850
X38735Y77470
X28575Y69850
X31115Y59690
X31115Y67310
X23495Y59690
X23495Y67310
X20955Y59690
X20955Y67310
X33655Y59690
X33655Y67310
X36195Y67310
X36195Y59690
X51435Y67310
X51435Y59690
X53975Y67310
X53975Y59690
X48895Y59690
X48895Y67310
X31115Y80010
X31115Y87630
X38735Y67310
X38735Y59690
X53975Y80010
X53975Y87630
X51435Y87630
X51435Y80010
X43180Y54610
X35560Y54610
X31115Y69850
X36195Y69850
X33655Y69850
X42545Y77470
X42545Y69850
X45085Y77470
X45085Y69850
X46355Y87630
X46355Y80010
X43815Y80010
X43815Y87630
X41275Y80010
X41275Y87630
X38735Y80010
X38735Y87630
X56515Y62230
X56515Y67310
X48895Y85090
X48895Y80010
X23495Y19050
X26035Y19050
X38735Y19050
X38735Y26670
X28575Y19050
X31115Y19050
X36195Y19050
X51435Y44450
X36195Y26670
X33655Y26670
X31115Y26670
X28575Y26670
X26035Y26670
X23495Y26670
X53975Y44450
X20955Y44450
X23495Y44450
X23495Y77470
X26035Y77470
X28575Y77470
X31115Y77470
X33655Y19050
X36195Y77470
X33655Y36830
X33655Y29210
X23495Y33020
X26035Y33020
X48260Y29210
X48260Y34290
X56515Y16510
X56515Y11430
X38735Y36830
X38735Y29210
X36195Y36830
X36195Y29210
X18415Y38735
X18415Y33655
X18415Y26035
X18415Y20955
X26035Y8890
X26035Y16510
X28575Y8890
X28575Y16510
X41275Y36830
X41275Y29210
X43815Y29210
X31115Y8890
X31115Y16510
X23495Y8890
X23495Y16510
X20955Y8890
X20955Y16510
X33655Y8890
X33655Y16510
X36195Y16510
X36195Y8890
X51435Y8890
X51435Y16510
X53975Y8890
X53975Y16510
X48895Y8890
X48895Y16510
X31115Y29210
X31115Y36830
X38735Y16510
X38735Y8890
X50800Y29210
X50800Y36830
X53340Y29210
X53340Y36830
X43180Y4445
X35560Y4445
X43815Y36830
X45085Y19050
X45085Y26670
X42545Y26670
X42545Y19050
T4
X48895Y26670
X51435Y26670
X53975Y26670
X56515Y26670
X56515Y19050
X53975Y19050
X51435Y19050
X48895Y19050
X48895Y69850
X51435Y69850
X53975Y69850
X56515Y69850
X48895Y77470
X51435Y77470
X53975Y77470
X56515Y77470
T5
X43815Y10160
X43815Y12700
X43815Y15240
X26035Y5080
X28575Y5080
X31115Y5080
X43815Y66040
X43815Y63500
X43815Y60960
X24765Y54610
X27305Y54610
X29845Y54610
M30